<?xml version="1.0" encoding="UTF-8" standalone="no"?>
<!-- Created with Inkscape (http://www.inkscape.org/) -->

<svg
   xmlns:dc="http://purl.org/dc/elements/1.1/"
   xmlns:cc="http://creativecommons.org/ns#"
   xmlns:rdf="http://www.w3.org/1999/02/22-rdf-syntax-ns#"
   xmlns:svg="http://www.w3.org/2000/svg"
   xmlns="http://www.w3.org/2000/svg"
   version="1.1"
   width="235"
   height="74"
   id="svg2"
   xml:space="preserve"><metadata
     id="metadata8"><rdf:RDF><cc:Work
         rdf:about=""><dc:format>image/svg+xml</dc:format><dc:type
           rdf:resource="http://purl.org/dc/dcmitype/StillImage" /><dc:title></dc:title></cc:Work></rdf:RDF></metadata><defs
     id="defs6" /><g
     transform="matrix(1.25,0,0,-1.25,10.551929,161.10517)"
     id="g10"><g
       transform="matrix(0.1,0,0,0.1,-11.2,3.2)"
       id="g12"><path
         d="m 0,0 1927.56,0 0,1927.56 L 0,1927.56 0,0 z"
         id="path14"
         style="fill:#ffffff;fill-opacity:1;fill-rule:evenodd;stroke:none" /><path
         d="m 910.664,1251.85 9.988,-99.24 c 32.844,53.32 96.168,85.93 168.378,91.25 110.26,8.1 175.24,-63.9 214.79,-104.07 0,0 34.34,33.08 85.2,45.66 52.44,13 90.84,13.47 142.66,-7.22 59.89,-23.91 97.55,-58.84 120.21,-114.44 0,0.47 20.4,61.89 20.4,61.89 l 170.23,-30.5 c 0,0 -104.07,-288.543 -103.75,-288.875 6.37,-14.325 14.23,-26.59 6.62,-54.352 -13.21,-48.152 -66.39,-67.797 -101.87,-63.586 -44.47,5.238 -95.34,50.887 -83.46,91.719 0,0 -62.21,-41.813 -153.08,-24.438 -100.23,19.137 -134.35,90.645 -134.35,90.645 -28.51,-24.262 -130.56,-54.527 -212.36,-40.32 -50.86,8.82 -101.262,43.156 -115.852,65.367 l 3.832,-66.328 -56.426,-2.465 -162.988,128.199 9.668,-122.816 -158.469,-30.973 -1.285,5.496 -125.625,-37.113 -4.047,30.148 C 404.695,726.848 308.312,703.723 211.059,675.707 L 85.0391,1078.49 c 0,0 155.6129,57.68 209.8399,58.63 75.512,1.33 93.18,-37.2 104.687,-49.09 l -15.57,87.23 159.426,44.28 47.617,7.15 168.551,-135.24 -9.66,134.44 160.734,25.96 0,0"
         id="path16"
         style="fill:#ffffff;fill-opacity:1;fill-rule:nonzero;stroke:none" /><g
         transform="scale(0.994565,1.00544)"
         id="g18"><path
           d="m 915.641,1245.08 10.043,-98.71 c 33.023,53.04 96.696,85.47 169.296,90.76 110.86,8.07 176.2,-63.55 215.97,-103.5 0,0 34.52,32.9 85.66,45.41 52.72,12.93 91.34,13.4 143.44,-7.17 60.22,-23.79 98.08,-58.53 120.86,-113.83 0,0.46 20.51,61.56 20.51,61.56 l 171.17,-30.34 c 0,0 -104.64,-286.984 -104.31,-287.314 6.4,-14.247 14.3,-26.446 6.65,-54.058 -13.29,-47.892 -66.76,-67.43 -102.43,-63.242 -44.71,5.21 -95.86,50.612 -83.91,91.223 0,0 -62.55,-41.587 -153.92,-24.305 -100.78,19.033 -135.08,90.154 -135.08,90.154 -28.67,-24.131 -131.27,-54.233 -213.53,-40.102 -51.14,8.772 -101.811,42.923 -116.481,65.014 l 3.853,-65.97 -56.734,-2.452 -163.879,127.507 9.721,-122.153 -159.335,-30.805 -1.292,5.466 -126.312,-36.912 -4.069,29.985 C 406.907,722.918 309.997,699.918 212.212,672.054 L 85.5038,1072.66 c 0,0 156.4632,57.37 210.9862,58.31 75.925,1.32 93.689,-37 105.26,-48.82 l -15.655,86.76 160.297,44.04 47.877,7.11 169.472,-134.51 -9.713,133.71 161.613,25.82 0,0 z"
           id="path20"
           style="fill:none;stroke:#ffffff;stroke-width:8.18735981;stroke-linecap:butt;stroke-linejoin:miter;stroke-miterlimit:2.61310005;stroke-opacity:1;stroke-dasharray:none" /></g><path
         d="m 895.047,1232.95 10.945,-139.86 c 23.793,59.36 59.375,95.6 120.998,119.16 37.75,14.43 62.75,16.87 102.81,11.94 63.37,-7.79 97.38,-39.79 143.71,-79.17 l -67.79,-70.59 57.92,2.55 -0.36,-11.85 c 30.21,55.25 76.74,86.73 134.13,103.85 24.44,7.3 59.7,8.83 96.35,0.45 70.82,-16.19 115.2,-55.39 145.69,-117.19 0,0 11.03,-33.25 15.31,-48.58 l 27.84,103.02 138.15,-23.88 -94.59,-265.089 c 0,-0.512 -13.68,2.918 -13.37,2.617 1.47,-4.711 24.26,-23.359 20.26,-52.59 -5.91,-43.527 -49.49,-66.168 -86.66,-62.449 -33.03,3.324 -71.52,31.242 -74.21,69.711 -1.27,18.059 13.25,36.469 18.19,47.934 -40.82,-35.2 -98.5,-61.493 -165.73,-52.868 -37.24,4.797 -55.55,13.602 -90.06,34.34 -30.14,18.117 -61.18,58.735 -77.93,95.262 l 0.58,-41.871 c -28.32,-18.84 -80.31,-35.41 -134.91,-38.598 -20.36,-1.176 -32.11,-1.82 -52.29,1.231 -66.87,10.156 -116.218,49.461 -145.245,95.711 l 6.133,-92.68 -33.84,-3.133 -188.426,145.578 11.653,-142.504 -125.133,-23.3 c -0.082,0.078 -0.93,-2.446 -1.61,4.402 l -127.539,-36.395 -9.644,47.289 C 421.5,754.258 363.316,738.824 225.777,695.684 l -120.32,370.186 c 49.613,13.15 131.461,53.45 191.477,53.45 68.5,0 111.757,-44.18 111.757,-109.49 0,-12.721 -3.621,-28.568 -10.054,-40.463 13.711,-4.82 25.527,-14.555 35.968,-25.336 l -32.05,221.059 129.039,33.62 49.566,-310.546 c -11.324,123.426 -29.523,318.386 -29.523,318.386 l 31.136,4.29 195.743,-154.27 -7.883,156.18 124.414,20.2 0,0"
         id="path22"
         style="fill:#ffffff;fill-opacity:1;fill-rule:nonzero;stroke:none" /><g
         transform="scale(0.994565,1.00544)"
         id="g24"><path
           d="m 899.938,1226.28 11.005,-139.1 c 23.923,59.04 59.7,95.09 121.657,118.52 37.96,14.35 63.1,16.78 103.38,11.87 63.71,-7.75 97.9,-39.57 144.49,-78.74 l -68.16,-70.21 58.24,2.53 -0.37,-11.78 c 30.38,54.95 77.17,86.26 134.86,103.29 24.58,7.26 60.03,8.78 96.88,0.45 71.21,-16.1 115.83,-55.09 146.48,-116.56 0,0 11.1,-33.07 15.4,-48.319 l 28,102.459 138.9,-23.75 -95.11,-263.649 c 0.01,-0.509 -13.75,2.902 -13.44,2.603 1.48,-4.686 24.4,-23.234 20.38,-52.306 -5.95,-43.292 -49.77,-65.81 -87.14,-62.112 -33.21,3.307 -71.91,31.074 -74.62,69.334 -1.27,17.961 13.32,36.272 18.29,47.675 -41.05,-35.009 -99.04,-61.16 -166.64,-52.581 -37.44,4.77 -55.85,13.528 -90.55,34.154 -30.3,18.019 -61.51,58.417 -78.35,94.747 l 0.58,-41.645 c -28.47,-18.738 -80.75,-35.219 -135.64,-38.389 -20.47,-1.17 -32.3,-1.811 -52.58,1.224 -67.23,10.101 -116.855,49.193 -146.041,95.193 l 6.166,-92.179 -34.024,-3.115 -189.456,144.791 11.716,-141.734 -125.817,-23.175 c -0.082,0.078 -0.934,-2.432 -1.618,4.379 L 468.57,763.957 458.873,810.991 C 423.803,750.18 365.302,734.83 227.011,691.923 L 106.033,1060.11 c 49.885,13.08 132.18,53.16 192.523,53.16 68.875,0 112.369,-43.94 112.369,-108.9 0,-12.651 -3.641,-28.413 -10.11,-40.243 13.786,-4.794 25.667,-14.476 36.166,-25.199 l -32.226,219.862 129.744,33.44 49.837,-308.867 C 572.95,1006.12 554.651,1200.03 554.651,1200.03 l 31.307,4.26 196.812,-153.43 -7.926,155.33 125.094,20.09 0,0 z"
           id="path26"
           style="fill:none;stroke:#231f20;stroke-width:10.91559982;stroke-linecap:butt;stroke-linejoin:miter;stroke-miterlimit:2.61310005;stroke-opacity:1;stroke-dasharray:none" /></g><path
         d="m 873.41,1206.73 29.629,-362.273 -219.551,169.153 10.348,-172.403 -80.289,-14.047 -32.203,349.59 224.355,-169.89 -12.144,186.01 79.855,13.86 0,0"
         id="path28"
         style="fill:#f78d11;fill-opacity:1;fill-rule:nonzero;stroke:none" /><g
         transform="scale(0.994565,1.00544)"
         id="g30"><path
           d="M 878.183,1200.21 907.974,839.892 687.223,1008.13 697.628,836.66 616.9,822.689 l -32.379,347.701 225.581,-168.97 -12.211,185 80.292,13.79 0,0 z"
           id="path32"
           style="fill:none;stroke:#231f20;stroke-width:10.91559982;stroke-linecap:butt;stroke-linejoin:miter;stroke-miterlimit:2.61310005;stroke-opacity:1;stroke-dasharray:none" /></g><path
         d="m 1082.12,1202.51 c 14.45,1.75 22.81,1.9 37.31,0.7 52.02,-4.26 95.29,-33.27 120.71,-58.37 l -51.19,-55.16 c -25.06,21.91 -55.37,34.66 -81.22,34.66 -59.48,0 -105.93,-41.96 -105.93,-102.53 0,-69.962 58.93,-102.888 114.07,-102.888 10.97,0 41.75,4.105 46.8,12.609 l 0,50.321 -88.51,0 24.16,73.688 140.98,-1.47 -5.89,-184.082 c -20.61,-14.539 -66.68,-26.961 -111.61,-29.82 -14.53,-0.938 -22.87,-1.602 -37.34,0 -17.3,1.879 -27.06,4.465 -43.37,10.586 -70.68,26.527 -113.508,76.363 -121.34,152.166 -1.5,14.51 -1.645,22.91 0,37.41 1.965,17.46 4.762,27.28 11.07,43.67 27.078,70.32 77.18,109.54 151.3,118.51 l 0,0"
         id="path34"
         style="fill:#f78d11;fill-opacity:1;fill-rule:nonzero;stroke:none" /><g
         transform="scale(0.994565,1.00544)"
         id="g36"><path
           d="m 1088.03,1196.01 c 14.54,1.74 22.93,1.89 37.52,0.7 52.3,-4.24 95.81,-33.09 121.37,-58.06 l -51.47,-54.86 c -25.19,21.79 -55.67,34.48 -81.67,34.48 -59.8,0 -106.51,-41.74 -106.51,-101.99 0,-69.578 59.26,-102.326 114.7,-102.326 11.03,0 41.97,4.084 47.05,12.542 l 0,50.048 -88.99,0 24.29,73.296 141.75,-1.47 -5.92,-183.085 c -20.72,-14.46 -67.04,-26.815 -112.22,-29.659 -14.61,-0.932 -23,-1.593 -37.54,0 -17.4,1.869 -27.21,4.441 -43.61,10.529 -71.067,26.384 -114.129,75.95 -122.004,151.345 -1.508,14.43 -1.653,22.79 0,37.21 1.976,17.36 4.788,27.13 11.131,43.43 27.226,69.94 77.603,108.94 152.123,117.87 l 0,0 z"
           id="path38"
           style="fill:none;stroke:#231f20;stroke-width:10.91559982;stroke-linecap:butt;stroke-linejoin:miter;stroke-miterlimit:2.61310005;stroke-opacity:1;stroke-dasharray:none" /></g><g
         transform="scale(0.994565,1.00544)"
         id="g40"><path
           d="m 1113.43,1097.62 c 21.89,0 42.46,-10.11 61.76,-29 l -90.28,5.06 -32.75,-110.039 95.58,-7.432 0,-16.834 c -9.98,-1.896 -22.74,-1.345 -40.36,-0.369 -51.8,2.863 -77.26,34.694 -77.26,74.034 0,47.43 34.46,84.58 83.31,84.58 l 0,0 z"
           id="path42"
           style="fill:none;stroke:#231f20;stroke-width:10.91559982;stroke-linecap:butt;stroke-linejoin:miter;stroke-miterlimit:2.61310005;stroke-opacity:1;stroke-dasharray:none" /></g><path
         d="m 511.484,1168.67 54.625,-346.932 -84.281,-23.086 -52.973,348.438 82.629,21.58 0,0"
         id="path44"
         style="fill:#f78d11;fill-opacity:1;fill-rule:nonzero;stroke:none" /><g
         transform="scale(0.994565,1.00544)"
         id="g46"><path
           d="m 514.28,1162.35 54.923,-345.054 -84.742,-22.961 -53.262,346.545 83.081,21.47 0,0 z"
           id="path48"
           style="fill:none;stroke:#231f20;stroke-width:10.91559982;stroke-linecap:butt;stroke-linejoin:miter;stroke-miterlimit:2.61310005;stroke-opacity:1;stroke-dasharray:none" /></g><path
         d="m 1449.33,1152.37 c 78.79,-0.47 138.06,-39.36 168.39,-112.89 8.16,-19.8 11.44,-31.99 13.16,-53.371 0.86,-10.675 0.87,-16.781 0,-27.453 -1.67,-20.515 -4.82,-32.168 -12.47,-51.242 -29.84,-74.484 -89.59,-114.551 -169.08,-115.023 -6.71,-0.039 -10.51,0.097 -17.18,0.707 -34.38,3.07 -54.76,10.191 -83.57,29.367 -49.65,33.027 -73.82,71.312 -80.1,131.047 -1.54,14.625 -1.54,23.105 0,37.73 8.31,79.138 56.34,132.548 132.06,154.298 12.06,3.46 19.09,4.95 31.58,6.13 6.68,0.62 10.5,0.74 17.21,0.7 l 0,0"
         id="path50"
         style="fill:#f78d11;fill-opacity:1;fill-rule:nonzero;stroke:none" /><g
         transform="scale(0.994565,1.00544)"
         id="g52"><path
           d="m 1457.25,1146.14 c 79.22,-0.46 138.82,-39.15 169.31,-112.28 8.2,-19.69 11.5,-31.81 13.23,-53.081 0.87,-10.618 0.88,-16.691 0,-27.305 -1.68,-20.405 -4.84,-31.994 -12.53,-50.965 -30,-74.082 -90.09,-113.932 -170.01,-114.402 -6.75,-0.039 -10.56,0.097 -17.28,0.703 -34.56,3.054 -55.05,10.137 -84.02,29.209 -49.93,32.849 -74.22,70.927 -80.53,130.338 -1.56,14.546 -1.56,22.981 0,37.527 8.34,78.706 56.64,131.826 132.78,153.466 12.12,3.44 19.19,4.92 31.74,6.09 6.73,0.62 10.56,0.74 17.31,0.7 l 0,0 z"
           id="path54"
           style="fill:none;stroke:#231f20;stroke-width:10.91559982;stroke-linecap:butt;stroke-linejoin:miter;stroke-miterlimit:2.61310005;stroke-opacity:1;stroke-dasharray:none" /></g><path
         d="m 1449.68,1074.73 c 54.79,0 98.07,-50.64 98.07,-101.632 0,-53.047 -43.28,-103.071 -98.07,-103.071 -54.52,0 -98.78,50.36 -98.78,101.993 0,52.43 44.26,102.71 98.78,102.71 l 0,0"
         id="path56"
         style="fill:#ffffff;fill-opacity:1;fill-rule:nonzero;stroke:none" /><g
         transform="scale(0.994565,1.00544)"
         id="g58"><path
           d="m 1457.6,1068.92 c 55.09,0 98.6,-50.36 98.6,-101.083 0,-52.76 -43.51,-102.513 -98.6,-102.513 -54.81,0 -99.32,50.087 -99.32,101.441 0,52.155 44.51,102.155 99.32,102.155 l 0,0 z"
           id="path60"
           style="fill:none;stroke:#231f20;stroke-width:8.18735981;stroke-linecap:butt;stroke-linejoin:miter;stroke-miterlimit:2.61310005;stroke-opacity:1;stroke-dasharray:none" /></g><path
         d="m 1449.68,1048.97 c 39.65,0 72.57,-37.31 72.57,-74.443 0,-39.644 -32.92,-78.734 -72.57,-78.734 -39.38,0 -73.28,39.727 -73.28,76.937 0,38.13 31.32,76.24 73.28,76.24 l 0,0"
         id="path62"
         style="fill:#ffffff;fill-opacity:1;fill-rule:nonzero;stroke:none" /><g
         transform="scale(0.994565,1.00544)"
         id="g64"><path
           d="m 1457.6,1043.3 c 39.87,0 72.97,-37.11 72.97,-74.041 0,-39.43 -33.1,-78.309 -72.97,-78.309 -39.6,0 -73.68,39.512 -73.68,76.522 0,37.918 31.5,75.828 73.68,75.828 l 0,0 z"
           id="path66"
           style="fill:none;stroke:#231f20;stroke-width:10.91559982;stroke-linecap:butt;stroke-linejoin:miter;stroke-miterlimit:2.61310005;stroke-opacity:1;stroke-dasharray:none" /></g><path
         d="m 1701.59,1077.77 85.01,-14.89 -80.58,-221.556 -68.06,8.235 63.63,228.211 0,0"
         id="path68"
         style="fill:#f78d11;fill-opacity:1;fill-rule:nonzero;stroke:none" /><g
         transform="scale(0.994565,1.00544)"
         id="g70"><path
           d="m 1710.89,1071.94 85.47,-14.8 -81.02,-220.364 -68.43,8.19 63.98,226.974 0,0 z"
           id="path72"
           style="fill:none;stroke:#231f20;stroke-width:10.91559982;stroke-linecap:butt;stroke-linejoin:miter;stroke-miterlimit:2.61310005;stroke-opacity:1;stroke-dasharray:none" /></g><path
         d="m 1648.97,826.688 c 20.3,-1.504 60.96,-17.727 61.28,-53.879 0.27,-30.641 -33.23,-47.348 -56.19,-46.118 -41.77,2.254 -63.13,33.004 -60.61,57.403 1.91,18.629 25.21,44.847 55.52,42.594 l 0,0"
         id="path74"
         style="fill:#f78d11;fill-opacity:1;fill-rule:nonzero;stroke:none" /><g
         transform="scale(0.994565,1.00544)"
         id="g76"><path
           d="m 1657.98,822.219 c 20.41,-1.496 61.29,-17.631 61.61,-53.588 0.28,-30.475 -33.41,-47.092 -56.49,-45.868 -42,2.242 -63.47,32.826 -60.94,57.092 1.92,18.528 25.34,44.605 55.82,42.364 l 0,0 z"
           id="path78"
           style="fill:none;stroke:#231f20;stroke-width:10.91559982;stroke-linecap:butt;stroke-linejoin:miter;stroke-miterlimit:2.61310005;stroke-opacity:1;stroke-dasharray:none" /></g><path
         d="m 295.508,1094.1 c 52.402,0 87.683,-29.79 87.683,-83.2 0,-18.435 -4.703,-34.791 -24.793,-55.013 58.653,-7.539 83.622,-55.399 84.278,-97.442 C 443.953,776.133 338.473,757.391 238.641,726.242 L 136.23,1049.65 c 49.844,13.98 106,44.45 159.278,44.45 l 0,0"
         id="path80"
         style="fill:#f78d11;fill-opacity:1;fill-rule:nonzero;stroke:none" /><g
         transform="scale(0.994565,1.00544)"
         id="g82"><path
           d="m 297.123,1088.18 c 52.688,0 88.162,-29.62 88.162,-82.75 0,-18.33 -4.728,-34.597 -24.928,-54.711 58.973,-7.498 84.078,-55.099 84.738,-96.914 1.284,-81.868 -104.773,-100.509 -205.15,-131.489 l -102.97,321.664 c 50.116,13.9 106.579,44.2 160.148,44.2 l 0,0 z"
           id="path84"
           style="fill:none;stroke:#231f20;stroke-width:10.91559982;stroke-linecap:butt;stroke-linejoin:miter;stroke-miterlimit:2.61310005;stroke-opacity:1;stroke-dasharray:none" /></g><path
         d="m 269.828,1024.82 c 23.531,-0.62 34.586,-17.93 34.078,-37.414 -0.683,-26.472 -31.082,-31.918 -51.07,-37.984 L 233.18,1016.3 c 12.328,2.18 24.613,8.82 36.648,8.52 l 0,0"
         id="path86"
         style="fill:#ffffff;fill-opacity:1;fill-rule:nonzero;stroke:none" /><g
         transform="scale(0.994565,1.00544)"
         id="g88"><path
           d="m 271.303,1019.28 c 23.66,-0.62 34.775,-17.83 34.264,-37.212 -0.687,-26.329 -31.252,-31.745 -51.349,-37.779 l -19.764,66.521 c 12.395,2.16 24.748,8.77 36.849,8.47 l 0,0 z"
           id="path90"
           style="fill:none;stroke:#231f20;stroke-width:10.91559982;stroke-linecap:butt;stroke-linejoin:miter;stroke-miterlimit:2.61310005;stroke-opacity:1;stroke-dasharray:none" /></g><path
         d="m 272.121,1002.64 c 9.262,-1.07 10.758,-8.808 9.965,-15.859 -0.766,-6.769 -13.973,-9.765 -16.07,-10.008 -2.129,8.598 -5.219,16.301 -6.805,23.777 4.18,0.79 11.539,2.25 12.91,2.09 l 0,0"
         id="path92"
         style="fill:#231f20;fill-opacity:1;fill-rule:nonzero;stroke:none" /><g
         transform="scale(0.994565,1.00544)"
         id="g94"><path
           d="m 273.608,997.221 c 9.313,-1.065 10.817,-8.761 10.02,-15.774 -0.77,-6.733 -14.05,-9.713 -16.159,-9.954 -2.14,8.551 -5.247,16.213 -6.842,23.645 4.203,0.789 11.603,2.238 12.981,2.083 l 0,0 z"
           id="path96"
           style="fill:none;stroke:#231f20;stroke-width:8.18735981;stroke-linecap:butt;stroke-linejoin:miter;stroke-miterlimit:2.61310005;stroke-opacity:1;stroke-dasharray:none" /></g><path
         d="m 324.773,895.852 c 19.817,-0.352 31.875,-19.622 31.575,-36.704 -0.524,-30.425 -35.969,-35.492 -57.684,-43.671 l -2.418,0.039 -20.836,69.578 c 7.965,1.914 37.324,10.972 49.363,10.758 l 0,0"
         id="path98"
         style="fill:#ffffff;fill-opacity:1;fill-rule:nonzero;stroke:none" /><g
         transform="scale(0.994565,1.00544)"
         id="g100"><path
           d="m 326.548,891.009 c 19.925,-0.35 32.049,-19.515 31.747,-36.505 -0.526,-30.261 -36.165,-35.3 -57.999,-43.436 l -2.431,0.039 -20.95,69.202 c 8.009,1.904 37.528,10.913 49.633,10.7 l 0,0 z"
           id="path102"
           style="fill:none;stroke:#231f20;stroke-width:10.91559982;stroke-linecap:butt;stroke-linejoin:miter;stroke-miterlimit:2.61310005;stroke-opacity:1;stroke-dasharray:none" /></g><path
         d="m 323.078,872.219 c 7.461,-0.664 10,-9.336 9.582,-14.11 -0.883,-10.269 -14.668,-11.875 -20.582,-14.418 l -7.219,25.825 c 5.918,1.175 16.942,2.816 18.219,2.703 l 0,0"
         id="path104"
         style="fill:#231f20;fill-opacity:1;fill-rule:nonzero;stroke:none" /><g
         transform="scale(0.994565,1.00544)"
         id="g106"><path
           d="m 324.844,867.504 c 7.501,-0.661 10.054,-9.286 9.634,-14.033 -0.888,-10.214 -14.748,-11.811 -20.694,-14.34 l -7.259,25.684 c 5.951,1.17 17.034,2.801 18.319,2.689 l 0,0 z"
           id="path108"
           style="fill:none;stroke:#231f20;stroke-width:8.18735981;stroke-linecap:butt;stroke-linejoin:miter;stroke-miterlimit:2.61310005;stroke-opacity:1;stroke-dasharray:none" /></g><g
         transform="scale(0.994565,1.00544)"
         id="g110"><path
           d="m 297.123,1088.18 c 52.688,0 88.162,-29.62 88.162,-82.75 0,-18.33 -4.728,-34.597 -24.928,-54.711 58.973,-7.498 81.553,-50.623 82.205,-92.443 1.288,-81.863 -97.53,-96.203 -197.92,-127.183 l -99.525,312.847 c 50.12,13.9 98.437,44.24 152.006,44.24 l 0,0 z"
           id="path112"
           style="fill:none;stroke:#231f20;stroke-width:10.91559982;stroke-linecap:butt;stroke-linejoin:miter;stroke-miterlimit:2.61310005;stroke-opacity:1;stroke-dasharray:none" /></g><path
         d="M 510.496,1168.78 564.312,828 l -78.96,-20.246 -49.895,340.786 75.039,20.24 0,0"
         id="path114"
         style="fill:#f78d11;fill-opacity:1;fill-rule:nonzero;stroke:none" /><g
         transform="scale(0.994565,1.00544)"
         id="g116"><path
           d="m 513.286,1162.46 54.11,-338.936 -79.392,-20.137 -50.167,338.943 75.449,20.13 0,0 z"
           id="path118"
           style="fill:none;stroke:#231f20;stroke-width:10.91559982;stroke-linecap:butt;stroke-linejoin:miter;stroke-miterlimit:2.61310005;stroke-opacity:1;stroke-dasharray:none" /></g><path
         d="m 873.41,1207.52 24.871,-349.332 -215.312,163.262 10.636,-174.805 -70.351,-13.461 -32.215,335.596 214.66,-161.13 -12.144,186.01 79.855,13.86 0,0"
         id="path120"
         style="fill:#f78d11;fill-opacity:1;fill-rule:nonzero;stroke:none" /><g
         transform="scale(0.994565,1.00544)"
         id="g122"><path
           d="M 878.183,1201 903.19,853.548 686.701,1015.93 697.396,842.068 626.66,828.68 l -32.391,333.78 215.833,-160.26 -12.211,185.01 80.292,13.79 0,0 z"
           id="path124"
           style="fill:none;stroke:#231f20;stroke-width:10.91559982;stroke-linecap:butt;stroke-linejoin:miter;stroke-miterlimit:2.61310005;stroke-opacity:1;stroke-dasharray:none" /></g><path
         d="m 1082.12,1202.51 c 14.43,1.88 22.81,1.9 37.31,0.7 52.02,-4.26 95.29,-33.27 120.71,-58.37 l -51.19,-55.16 c -25.06,21.91 -55.37,34.66 -81.22,34.66 -59.48,0 -105.93,-41.96 -105.93,-102.53 0,-69.962 58.93,-102.888 114.07,-102.888 10.97,0 41.75,4.105 46.8,12.609 l 0,50.321 -88.51,0 24.16,73.688 140.98,-1.47 -5.89,-184.082 c -20.61,-14.539 -66.06,-23.246 -109.99,-24.929 -14.26,-0.528 -22.42,-1.036 -36.56,0.804 -17.28,2.25 -27,5.032 -43.19,11.524 -64.572,25.961 -103.744,69.101 -113.752,138.633 -2.512,17.46 -2.996,27.77 -0.586,45.26 2.367,17.29 5.852,26.83 12.566,42.92 27.68,66.35 69.592,109.07 140.222,118.31 l 0,0"
         id="path126"
         style="fill:#f78d11;fill-opacity:1;fill-rule:nonzero;stroke:none" /><g
         transform="scale(0.994565,1.00544)"
         id="g128"><path
           d="m 1088.03,1196.01 c 14.51,1.87 22.93,1.89 37.52,0.7 52.3,-4.24 95.81,-33.09 121.37,-58.06 l -51.47,-54.86 c -25.19,21.79 -55.67,34.48 -81.67,34.48 -59.8,0 -106.51,-41.74 -106.51,-101.99 0,-69.578 59.26,-102.326 114.7,-102.326 11.03,0 41.97,4.084 47.05,12.542 l 0,50.048 -88.99,0 24.29,73.296 141.75,-1.47 -5.92,-183.085 c -20.72,-14.46 -66.42,-23.12 -110.59,-24.795 -14.33,-0.524 -22.55,-1.029 -36.76,0.801 -17.38,2.238 -27.15,5.004 -43.42,11.461 -64.932,25.82 -104.318,68.728 -114.38,137.883 -2.526,17.365 -3.013,27.615 -0.589,45.015 2.38,17.2 5.883,26.69 12.635,42.69 27.831,65.99 69.974,108.48 140.984,117.67 l 0,0 z"
           id="path130"
           style="fill:none;stroke:#231f20;stroke-width:10.91559982;stroke-linecap:butt;stroke-linejoin:miter;stroke-miterlimit:2.61310005;stroke-opacity:1;stroke-dasharray:none" /></g><g
         transform="scale(0.994565,1.00544)"
         id="g132"><path
           d="m 1457.25,1146.14 c 79.22,-0.46 138.82,-39.15 169.31,-112.28 8.2,-19.69 11.5,-31.81 13.23,-53.081 0.87,-10.618 0.88,-16.691 0,-27.305 -1.68,-20.405 -4.74,-32.049 -12.53,-50.965 -29.61,-71.844 -89.16,-108.407 -166.87,-108.893 -6.75,-0.039 -10.57,0.117 -17.28,0.7 -34.56,3.057 -55.38,9.635 -84.03,29.208 -46.36,31.66 -67.13,68.071 -73.31,123.87 -1.65,14.907 -1.58,23.547 0,38.462 8.07,76.144 48.93,132.024 122.43,153.494 12.1,3.53 19.19,4.92 31.74,6.09 6.73,0.62 10.56,0.74 17.31,0.7 l 0,0 z"
           id="path134"
           style="fill:none;stroke:#231f20;stroke-width:10.91559982;stroke-linecap:butt;stroke-linejoin:miter;stroke-miterlimit:2.61310005;stroke-opacity:1;stroke-dasharray:none" /></g><path
         d="m 1503.2,1201.61 10.25,-149.19 145.21,-30.24 -138.13,-63.535 11.33,-153.184 -95.59,120.973 -135.23,-59.403 76.46,124.535 -93.82,119.014 141.97,-38.12 77.55,129.15 0,0"
         id="path136"
         style="fill:#fff200;fill-opacity:1;fill-rule:nonzero;stroke:none" /><g
         transform="scale(0.994565,1.00544)"
         id="g138"><path
           d="m 1511.41,1195.12 10.31,-148.39 146,-30.08 -138.88,-63.188 11.39,-152.355 -96.11,120.318 -135.97,-59.081 76.88,123.862 -94.34,118.374 142.75,-37.92 77.97,128.46 0,0 z"
           id="path140"
           style="fill:none;stroke:#231f20;stroke-width:10.91559982;stroke-linecap:butt;stroke-linejoin:miter;stroke-miterlimit:2.61310005;stroke-opacity:1;stroke-dasharray:none" /></g><g
         transform="scale(0.994565,1.00544)"
         id="g142"><path
           d="m 1511.41,1195.12 10.31,-148.39 146,-30.08 -138.88,-63.188 11.39,-152.355 -90.29,122.378 -133.93,-56.898 77.04,120.101 -88.51,110.202 137.87,-34.75 69,132.98 0,0 z"
           id="path144"
           style="fill:none;stroke:#231f20;stroke-width:10.91559982;stroke-linecap:butt;stroke-linejoin:miter;stroke-miterlimit:2.61310005;stroke-opacity:1;stroke-dasharray:none" /></g><path
         d="m 1708.03,1074.25 78.57,-11.37 -77.78,-215.431 -62.86,6.77 62.07,220.031 0,0"
         id="path146"
         style="fill:#f78d11;fill-opacity:1;fill-rule:nonzero;stroke:none" /><g
         transform="scale(0.994565,1.00544)"
         id="g148"><path
           d="m 1717.37,1068.45 78.99,-11.31 -78.21,-214.272 -63.19,6.733 62.41,218.849 0,0 z"
           id="path150"
           style="fill:none;stroke:#231f20;stroke-width:10.91559982;stroke-linecap:butt;stroke-linejoin:miter;stroke-miterlimit:2.61310005;stroke-opacity:1;stroke-dasharray:none" /></g><path
         d="m 1648.97,826.688 c 20.3,-1.504 60.96,-17.727 61.28,-53.879 0.27,-30.641 -26.8,-42.161 -49.75,-40.93 -41.79,2.269 -59.88,26.039 -57.38,50.437 1.92,18.625 15.54,46.625 45.85,44.372 l 0,0"
         id="path152"
         style="fill:#f78d11;fill-opacity:1;fill-rule:nonzero;stroke:none" /><g
         transform="scale(0.994565,1.00544)"
         id="g154"><path
           d="m 1657.98,822.219 c 20.41,-1.496 61.29,-17.631 61.61,-53.588 0.28,-30.475 -26.94,-41.932 -50.02,-40.709 -42.02,2.258 -60.2,25.899 -57.68,50.165 1.92,18.525 15.61,46.373 46.09,44.132 l 0,0 z"
           id="path156"
           style="fill:none;stroke:#231f20;stroke-width:10.91559982;stroke-linecap:butt;stroke-linejoin:miter;stroke-miterlimit:2.61310005;stroke-opacity:1;stroke-dasharray:none" /></g></g></g></svg>